<?xml version="1.0" encoding="UTF-8"?>
<svg xmlns="http://www.w3.org/2000/svg" xmlns:xlink="http://www.w3.org/1999/xlink" style="display:none">
  <symbol id="arrow-left" viewBox="0 0 256 256">
    <path d="M224,128a8,8,0,0,1-8,8H59.31l58.35,58.34a8,8,0,0,1-11.32,11.32l-72-72a8,8,0,0,1,0-11.32l72-72a8,8,0,0,1,11.32,11.32L59.31,120H216A8,8,0,0,1,224,128Z"/>
  </symbol>

  <symbol id="arrow-right" viewBox="0 0 256 256">
    <path d="M221.66,133.66l-72,72a8,8,0,0,1-11.32-11.32L196.69,136H40a8,8,0,0,1,0-16H196.69L138.34,61.66a8,8,0,0,1,11.32-11.32l72,72A8,8,0,0,1,221.66,133.66Z"/>
  </symbol>

  <symbol id="arrow-up" viewBox="0 0 256 256">
    <path d="M205.66,117.66a8,8,0,0,1-11.32,0L136,59.31V216a8,8,0,0,1-16,0V59.31L61.66,117.66a8,8,0,0,1-11.32-11.32l72-72a8,8,0,0,1,11.32,0l72,72A8,8,0,0,1,205.66,117.66Z"/>
  </symbol>

  <symbol id="arrow-down" viewBox="0 0 256 256">
    <path d="M205.66,149.66l-72,72a8,8,0,0,1-11.32,0l-72-72a8,8,0,0,1,11.32-11.32L120,196.69V40a8,8,0,0,1,16,0V196.69l58.34-58.35a8,8,0,0,1,11.32,11.32Z"/>
  </symbol>

  <symbol id="arrow-counter-clockwise" viewBox="0 0 256 256">
    <path d="M224,128a96,96,0,0,1-94.71,96H128A95.38,95.38,0,0,1,62.1,197.8a8,8,0,0,1,11-11.63A80,80,0,1,0,71.43,71.39a3.07,3.07,0,0,1-.26.25L44.59,96H72a8,8,0,0,1,0,16H24a8,8,0,0,1-8-8V56a8,8,0,0,1,16,0V85.8L60.25,60A96,96,0,0,1,224,128Z"/>
  </symbol>

  <symbol id="caret-left" viewBox="0 0 256 256">
    <path d="M165.66,202.34a8,8,0,0,1-11.32,11.32l-80-80a8,8,0,0,1,0-11.32l80-80a8,8,0,0,1,11.32,11.32L91.31,128Z"/>
  </symbol>

  <symbol id="caret-right" viewBox="0 0 256 256">
    <path d="M181.66,133.66l-80,80a8,8,0,0,1-11.32-11.32L164.69,128,90.34,53.66a8,8,0,0,1,11.32-11.32l80,80A8,8,0,0,1,181.66,133.66Z"/>
  </symbol>

  <symbol id="caret-down" viewBox="0 0 256 256">
    <path d="M213.66,101.66l-80,80a8,8,0,0,1-11.32,0l-80-80A8,8,0,0,1,53.66,90.34L128,164.69l74.34-74.35a8,8,0,0,1,11.32,11.32Z"/>
  </symbol>

  <symbol id="caret-up" viewBox="0 0 256 256">
    <path d="M213.66,165.66a8,8,0,0,1-11.32,0L128,91.31,53.66,165.66a8,8,0,0,1-11.32-11.32l80-80a8,8,0,0,1,11.32,0l80,80A8,8,0,0,1,213.66,165.66Z"/>
  </symbol>

  <symbol id="x" viewBox="0 0 256 256">
    <path d="M205.66,194.34a8,8,0,0,1-11.32,11.32L128,139.31,61.66,205.66a8,8,0,0,1-11.32-11.32L116.69,128,50.34,61.66A8,8,0,0,1,61.66,50.34L128,116.69l66.34-66.35a8,8,0,0,1,11.32,11.32L139.31,128Z"/>
  </symbol>

  <symbol id="list" viewBox="0 0 256 256">
    <path d="M224,128a8,8,0,0,1-8,8H40a8,8,0,0,1,0-16H216A8,8,0,0,1,224,128ZM40,72H216a8,8,0,0,0,0-16H40a8,8,0,0,0,0,16ZM216,184H40a8,8,0,0,0,0,16H216a8,8,0,0,0,0-16Z"/>
  </symbol>

  <symbol id="list-dashes" viewBox="0 0 256 256">
    <path d="M88,64a8,8,0,0,1,8-8H216a8,8,0,0,1,0,16H96A8,8,0,0,1,88,64Zm128,56H96a8,8,0,0,0,0,16H216a8,8,0,0,0,0-16Zm0,64H96a8,8,0,0,0,0,16H216a8,8,0,0,0,0-16ZM56,56H40a8,8,0,0,0,0,16H56a8,8,0,0,0,0-16Zm0,64H40a8,8,0,0,0,0,16H56a8,8,0,0,0,0-16Zm0,64H40a8,8,0,0,0,0,16H56a8,8,0,0,0,0-16Z"/>
  </symbol>

  <symbol id="dots-three-vertical" viewBox="0 0 256 256">
    <path d="M140,128a12,12,0,1,1-12-12A12,12,0,0,1,140,128ZM128,72a12,12,0,1,0-12-12A12,12,0,0,0,128,72Zm0,112a12,12,0,1,0,12,12A12,12,0,0,0,128,184Z"/>
  </symbol>

  <symbol id="dots-three" viewBox="0 0 256 256">
    <path d="M140,128a12,12,0,1,1-12-12A12,12,0,0,1,140,128Zm56-12a12,12,0,1,0,12,12A12,12,0,0,0,196,116ZM60,116a12,12,0,1,0,12,12A12,12,0,0,0,60,116Z"/>
  </symbol>

  <symbol id="house" viewBox="0 0 256 256">
    <path d="M219.31,108.68l-80-80a16,16,0,0,0-22.62,0l-80,80A15.87,15.87,0,0,0,32,120v96a8,8,0,0,0,8,8h64a8,8,0,0,0,8-8V160h32v56a8,8,0,0,0,8,8h64a8,8,0,0,0,8-8V120A15.87,15.87,0,0,0,219.31,108.68ZM208,208H160V152a8,8,0,0,0-8-8H104a8,8,0,0,0-8,8v56H48V120l80-80,80,80Z"/>
  </symbol>

  <symbol id="gear" viewBox="0 0 256 256">
    <path d="M128,80a48,48,0,1,0,48,48A48.05,48.05,0,0,0,128,80Zm0,80a32,32,0,1,1,32-32A32,32,0,0,1,128,160Zm88-29.84q.06-2.16,0-4.32l14.92-18.64a8,8,0,0,0,1.48-7.06,107.21,107.21,0,0,0-10.88-26.25,8,8,0,0,0-6-3.93l-23.72-2.64q-1.48-1.56-3-3L186,40.54a8,8,0,0,0-3.94-6,107.71,107.71,0,0,0-26.25-10.87,8,8,0,0,0-7.06,1.49L130.16,40Q128,40,125.84,40L107.2,25.11a8,8,0,0,0-7.06-1.48A107.6,107.6,0,0,0,73.89,34.51a8,8,0,0,0-3.93,6L67.32,64.27q-1.56,1.49-3,3L40.54,70a8,8,0,0,0-6,3.94,107.71,107.71,0,0,0-10.87,26.25,8,8,0,0,0,1.49,7.06L40,125.84Q40,128,40,130.16L25.11,148.8a8,8,0,0,0-1.48,7.06,107.21,107.21,0,0,0,10.88,26.25,8,8,0,0,0,6,3.93l23.72,2.64q1.49,1.56,3,3L70,215.46a8,8,0,0,0,3.94,6,107.71,107.71,0,0,0,26.25,10.87,8,8,0,0,0,7.06-1.49L125.84,216q2.16.06,4.32,0l18.64,14.92a8,8,0,0,0,7.06,1.48,107.21,107.21,0,0,0,26.25-10.88,8,8,0,0,0,3.93-6l2.64-23.72q1.56-1.48,3-3L215.46,186a8,8,0,0,0,6-3.94,107.71,107.71,0,0,0,10.87-26.25,8,8,0,0,0-1.49-7.06Zm-16.1-6.5a73.93,73.93,0,0,1,0,8.68,8,8,0,0,0,1.74,5.48l14.19,17.73a91.57,91.57,0,0,1-6.23,15L187,173.11a8,8,0,0,0-5.1,2.64,74.11,74.11,0,0,1-6.14,6.14,8,8,0,0,0-2.64,5.1l-2.51,22.58a91.32,91.32,0,0,1-15,6.23l-17.74-14.19a8,8,0,0,0-5-1.75h-.48a73.93,73.93,0,0,1-8.68,0,8,8,0,0,0-5.48,1.74L100.45,215.8a91.57,91.57,0,0,1-15-6.23L82.89,187a8,8,0,0,0-2.64-5.1,74.11,74.11,0,0,1-6.14-6.14,8,8,0,0,0-5.1-2.64L46.43,170.6a91.32,91.32,0,0,1-6.23-15l14.19-17.74a8,8,0,0,0,1.74-5.48,73.93,73.93,0,0,1,0-8.68,8,8,0,0,0-1.74-5.48L40.2,100.45a91.57,91.57,0,0,1,6.23-15L69,82.89a8,8,0,0,0,5.1-2.64,74.11,74.11,0,0,1,6.14-6.14A8,8,0,0,0,82.89,69L85.4,46.43a91.32,91.32,0,0,1,15-6.23l17.74,14.19a8,8,0,0,0,5.48,1.74,73.93,73.93,0,0,1,8.68,0,8,8,0,0,0,5.48-1.74L155.55,40.2a91.57,91.57,0,0,1,15,6.23L173.11,69a8,8,0,0,0,2.64,5.1,74.11,74.11,0,0,1,6.14,6.14,8,8,0,0,0,5.1,2.64l22.58,2.51a91.32,91.32,0,0,1,6.23,15l-14.19,17.74A8,8,0,0,0,199.87,123.66Z"/>
  </symbol>

  <symbol id="magnifying-glass" viewBox="0 0 256 256">
    <path d="M229.66,218.34l-50.07-50.06a88.11,88.11,0,1,0-11.31,11.31l50.06,50.07a8,8,0,0,0,11.32-11.32ZM40,112a72,72,0,1,1,72,72A72.08,72.08,0,0,1,40,112Z"/>
  </symbol>

  <symbol id="funnel" viewBox="0 0 256 256">
    <path d="M230.6,49.53A15.81,15.81,0,0,0,216,40H40A16,16,0,0,0,28.19,66.76l.08.09L96,139.17V216a16,16,0,0,0,24.87,13.32l32-21.34A16,16,0,0,0,160,194.66V139.17l67.74-72.32.08-.09A15.8,15.8,0,0,0,230.6,49.53ZM40,56h0Zm106.18,74.58A8,8,0,0,0,144,136v58.66L112,216V136a8,8,0,0,0-2.16-5.47L40,56H216Z"/>
  </symbol>

  <symbol id="tabs" viewBox="0 0 256 256">
    <path d="M255.66,165.7h0v0a.24.24,0,0,0,0-.08L233.37,91.4A15.89,15.89,0,0,0,218.05,80H208a8,8,0,0,0,0,16h10.05l19.2,64H206L185.37,91.4A15.89,15.89,0,0,0,170.05,80H160a8,8,0,0,0,0,16h10.05l19.2,64H158L137.37,91.4A15.89,15.89,0,0,0,122.05,80H38A15.89,15.89,0,0,0,22.63,91.4L.37,165.6l0,.05v0s0,.05,0,.08A8.1,8.1,0,0,0,0,168a8,8,0,0,0,8,8H248a8,8,0,0,0,7.66-10.3ZM38,96h84.1l19.2,64H18.75Z"/>
  </symbol>

  <symbol id="sidebar" viewBox="0 0 256 256">
    <path d="M216,40H40A16,16,0,0,0,24,56V200a16,16,0,0,0,16,16H216a16,16,0,0,0,16-16V56A16,16,0,0,0,216,40ZM40,152H56a8,8,0,0,0,0-16H40V120H56a8,8,0,0,0,0-16H40V88H56a8,8,0,0,0,0-16H40V56H80V200H40Zm176,48H96V56H216V200Z"/>
  </symbol>

  <symbol id="plus" viewBox="0 0 256 256">
    <path d="M224,128a8,8,0,0,1-8,8H136v80a8,8,0,0,1-16,0V136H40a8,8,0,0,1,0-16h80V40a8,8,0,0,1,16,0v80h80A8,8,0,0,1,224,128Z"/>
  </symbol>

  <symbol id="minus" viewBox="0 0 256 256">
    <path d="M224,128a8,8,0,0,1-8,8H40a8,8,0,0,1,0-16H216A8,8,0,0,1,224,128Z"/>
  </symbol>

  <symbol id="check" viewBox="0 0 256 256">
    <path d="M229.66,77.66l-128,128a8,8,0,0,1-11.32,0l-56-56a8,8,0,0,1,11.32-11.32L96,188.69,218.34,66.34a8,8,0,0,1,11.32,11.32Z"/>
  </symbol>

  <symbol id="trash" viewBox="0 0 256 256">
    <path d="M216,48H176V40a24,24,0,0,0-24-24H104A24,24,0,0,0,80,40v8H40a8,8,0,0,0,0,16h8V208a16,16,0,0,0,16,16H192a16,16,0,0,0,16-16V64h8a8,8,0,0,0,0-16ZM96,40a8,8,0,0,1,8-8h48a8,8,0,0,1,8,8v8H96Zm96,168H64V64H192ZM112,104v64a8,8,0,0,1-16,0V104a8,8,0,0,1,16,0Zm48,0v64a8,8,0,0,1-16,0V104a8,8,0,0,1,16,0Z"/>
  </symbol>

  <symbol id="pencil" viewBox="0 0 256 256">
    <path d="M227.31,73.37,182.63,28.68a16,16,0,0,0-22.63,0L36.69,152A15.86,15.86,0,0,0,32,163.31V208a16,16,0,0,0,16,16H92.69A15.86,15.86,0,0,0,104,219.31L227.31,96a16,16,0,0,0,0-22.63ZM51.31,160,136,75.31,152.69,92,68,176.68ZM48,179.31,76.69,208H48Zm48,25.38L79.31,188,164,103.31,180.69,120Zm96-96L147.31,64l24-24L216,84.68Z"/>
  </symbol>

  <symbol id="floppy-disk" viewBox="0 0 256 256">
    <path d="M219.31,72,184,36.69A15.86,15.86,0,0,0,172.69,32H48A16,16,0,0,0,32,48V208a16,16,0,0,0,16,16H208a16,16,0,0,0,16-16V83.31A15.86,15.86,0,0,0,219.31,72ZM168,208H88V152h80Zm40,0H184V152a16,16,0,0,0-16-16H88a16,16,0,0,0-16,16v56H48V48H172.69L208,83.31ZM160,72a8,8,0,0,1-8,8H96a8,8,0,0,1,0-16h56A8,8,0,0,1,160,72Z"/>
  </symbol>

  <symbol id="copy" viewBox="0 0 256 256">
    <path d="M216,32H88a8,8,0,0,0-8,8V80H40a8,8,0,0,0-8,8V216a8,8,0,0,0,8,8H168a8,8,0,0,0,8-8V176h40a8,8,0,0,0,8-8V40A8,8,0,0,0,216,32ZM160,208H48V96H160Zm48-48H176V88a8,8,0,0,0-8-8H96V48H208Z"/>
  </symbol>

  <symbol id="download" viewBox="0 0 256 256">
    <path d="M240,136v64a16,16,0,0,1-16,16H32a16,16,0,0,1-16-16V136a16,16,0,0,1,16-16H72a8,8,0,0,1,0,16H32v64H224V136H184a8,8,0,0,1,0-16h40A16,16,0,0,1,240,136Zm-117.66-2.34a8,8,0,0,0,11.32,0l48-48a8,8,0,0,0-11.32-11.32L136,108.69V24a8,8,0,0,0-16,0v84.69L85.66,74.34A8,8,0,0,0,74.34,85.66ZM200,168a12,12,0,1,0-12,12A12,12,0,0,0,200,168Z"/>
  </symbol>

  <symbol id="upload" viewBox="0 0 256 256">
    <path d="M240,136v64a16,16,0,0,1-16,16H32a16,16,0,0,1-16-16V136a16,16,0,0,1,16-16H80a8,8,0,0,1,0,16H32v64H224V136H176a8,8,0,0,1,0-16h48A16,16,0,0,1,240,136ZM85.66,77.66,120,43.31V128a8,8,0,0,0,16,0V43.31l34.34,34.35a8,8,0,0,0,11.32-11.32l-48-48a8,8,0,0,0-11.32,0l-48,48A8,8,0,0,0,85.66,77.66ZM200,168a12,12,0,1,0-12,12A12,12,0,0,0,200,168Z"/>
  </symbol>

  <symbol id="share" viewBox="0 0 256 256">
    <path d="M229.66,109.66l-48,48a8,8,0,0,1-11.32-11.32L204.69,112H165a88,88,0,0,0-85.23,66,8,8,0,0,1-15.5-4A103.94,103.94,0,0,1,165,96h39.71L170.34,61.66a8,8,0,0,1,11.32-11.32l48,48A8,8,0,0,1,229.66,109.66ZM192,208H40V88a8,8,0,0,0-16,0V216a8,8,0,0,0,8,8H192a8,8,0,0,0,0-16Z"/>
  </symbol>

  <symbol id="link" viewBox="0 0 256 256">
    <path d="M240,88.23a54.43,54.43,0,0,1-16,37L189.25,160a54.27,54.27,0,0,1-38.63,16h-.05A54.63,54.63,0,0,1,96,119.84a8,8,0,0,1,16,.45A38.62,38.62,0,0,0,150.58,160h0a38.39,38.39,0,0,0,27.31-11.31l34.75-34.75a38.63,38.63,0,0,0-54.63-54.63l-11,11A8,8,0,0,1,135.7,59l11-11A54.65,54.65,0,0,1,224,48,54.86,54.86,0,0,1,240,88.23ZM109,185.66l-11,11A38.41,38.41,0,0,1,70.6,208h0a38.63,38.63,0,0,1-27.29-65.94L78,107.31A38.63,38.63,0,0,1,144,135.71a8,8,0,0,0,16,.45A54.86,54.86,0,0,0,144,96a54.65,54.65,0,0,0-77.27,0L32,130.75A54.62,54.62,0,0,0,70.56,224h0a54.28,54.28,0,0,0,38.64-16l11-11A8,8,0,0,0,109,185.66Z"/>
  </symbol>

  <symbol id="eye" viewBox="0 0 256 256">
    <path d="M247.31,124.76c-.35-.79-8.82-19.58-27.65-38.41C194.57,61.26,162.88,48,128,48S61.43,61.26,36.34,86.35C17.51,105.18,9,124,8.69,124.76a8,8,0,0,0,0,6.5c.35.79,8.82,19.57,27.65,38.4C61.43,194.74,93.12,208,128,208s66.57-13.26,91.66-38.34c18.83-18.83,27.3-37.61,27.65-38.4A8,8,0,0,0,247.31,124.76ZM128,192c-30.78,0-57.67-11.19-79.93-33.25A133.47,133.47,0,0,1,25,128,133.33,133.33,0,0,1,48.07,97.25C70.33,75.19,97.22,64,128,64s57.67,11.19,79.93,33.25A133.46,133.46,0,0,1,231.05,128C223.84,141.46,192.43,192,128,192Zm0-112a48,48,0,1,0,48,48A48.05,48.05,0,0,0,128,80Zm0,80a32,32,0,1,1,32-32A32,32,0,0,1,128,160Z"/>
  </symbol>

  <symbol id="eye-slash" viewBox="0 0 256 256">
    <path d="M53.92,34.62A8,8,0,1,0,42.08,45.38L61.32,66.55C25,88.84,9.38,123.2,8.69,124.76a8,8,0,0,0,0,6.5c.35.79,8.82,19.57,27.65,38.4C61.43,194.74,93.12,208,128,208a127.11,127.11,0,0,0,52.07-10.83l22,24.21a8,8,0,1,0,11.84-10.76Zm47.33,75.84,41.67,45.85a32,32,0,0,1-41.67-45.85ZM128,192c-30.78,0-57.67-11.19-79.93-33.25A133.16,133.16,0,0,1,25,128c4.69-8.79,19.66-33.39,47.35-49.38l18,19.75a48,48,0,0,0,63.66,70l14.73,16.2A112,112,0,0,1,128,192Zm6-95.43a8,8,0,0,1,3-15.72,48.16,48.16,0,0,1,38.77,42.64,8,8,0,0,1-7.22,8.71,6.39,6.39,0,0,1-.75,0,8,8,0,0,1-8-7.26A32.09,32.09,0,0,0,134,96.57Zm113.28,34.69c-.42.94-10.55,23.37-33.36,43.8a8,8,0,1,1-10.67-11.92A132.77,132.77,0,0,0,231.05,128a133.15,133.15,0,0,0-23.12-30.77C185.67,75.19,158.78,64,128,64a118.37,118.37,0,0,0-19.36,1.57A8,8,0,1,1,106,49.79,134,134,0,0,1,128,48c34.88,0,66.57,13.26,91.66,38.35,18.83,18.83,27.3,37.62,27.65,38.41A8,8,0,0,1,247.31,131.26Z"/>
  </symbol>

  <symbol id="heart" viewBox="0 0 256 256">
    <path d="M178,40c-20.65,0-38.73,8.88-50,23.89C116.73,48.88,98.65,40,78,40a62.07,62.07,0,0,0-62,62c0,70,103.79,126.66,108.21,129a8,8,0,0,0,7.58,0C136.21,228.66,240,172,240,102A62.07,62.07,0,0,0,178,40ZM128,214.8C109.74,204.16,32,155.69,32,102A46.06,46.06,0,0,1,78,56c19.45,0,35.78,10.36,42.6,27a8,8,0,0,0,14.8,0c6.82-16.67,23.15-27,42.6-27a46.06,46.06,0,0,1,46,46C224,155.61,146.24,204.15,128,214.8Z"/>
  </symbol>

  <symbol id="star" viewBox="0 0 256 256">
    <path d="M239.18,97.26A16.38,16.38,0,0,0,224.92,86l-59-4.76L143.14,26.15a16.36,16.36,0,0,0-30.27,0L90.11,81.23,31.08,86a16.46,16.46,0,0,0-9.37,28.86l45,38.83L53,211.75a16.38,16.38,0,0,0,24.5,17.82L128,198.49l50.53,31.08A16.4,16.4,0,0,0,203,211.75l-13.76-58.07,45-38.83A16.43,16.43,0,0,0,239.18,97.26Zm-15.34,5.47-48.7,42a8,8,0,0,0-2.56,7.91l14.88,62.8a.37.37,0,0,1-.17.48c-.18.14-.23.11-.38,0l-54.72-33.65a8,8,0,0,0-8.38,0L69.09,215.94c-.15.09-.19.12-.38,0a.37.37,0,0,1-.17-.48l14.88-62.8a8,8,0,0,0-2.56-7.91l-48.7-42c-.12-.1-.23-.19-.13-.5s.18-.27.33-.29l63.92-5.16A8,8,0,0,0,103,91.86l24.62-59.61c.08-.17.11-.25.35-.25s.27.08.35.25L153,91.86a8,8,0,0,0,6.75,4.92l63.92,5.16c.15,0,.24,0,.33.29S224,102.63,223.84,102.73Z"/>
  </symbol>

  <symbol id="bookmark" viewBox="0 0 256 256">
    <path d="M184,32H72A16,16,0,0,0,56,48V224a8,8,0,0,0,12.24,6.78L128,193.43l59.77,37.35A8,8,0,0,0,200,224V48A16,16,0,0,0,184,32Zm0,16V161.57l-51.77-32.35a8,8,0,0,0-8.48,0L72,161.56V48ZM132.23,177.22a8,8,0,0,0-8.48,0L72,209.57V180.43l56-35,56,35v29.14Z"/>
  </symbol>

  <symbol id="note-pencil" viewBox="0 0 256 256">
    <path d="M229.66,58.34l-32-32a8,8,0,0,0-11.32,0l-96,96A8,8,0,0,0,88,128v32a8,8,0,0,0,8,8h32a8,8,0,0,0,5.66-2.34l96-96A8,8,0,0,0,229.66,58.34ZM124.69,152H104V131.31l64-64L188.69,88ZM200,76.69,179.31,56,192,43.31,212.69,64ZM224,128v80a16,16,0,0,1-16,16H48a16,16,0,0,1-16-16V48A16,16,0,0,1,48,32h80a8,8,0,0,1,0,16H48V208H208V128a8,8,0,0,1,16,0Z"/>
  </symbol>

  <symbol id="cursor-click" viewBox="0 0 256 256">
    <path d="M88,24V16a8,8,0,0,1,16,0v8a8,8,0,0,1-16,0ZM16,104h8a8,8,0,0,0,0-16H16a8,8,0,0,0,0,16ZM124.42,39.16a8,8,0,0,0,10.74-3.58l8-16a8,8,0,0,0-14.31-7.16l-8,16A8,8,0,0,0,124.42,39.16Zm-96,81.69-16,8a8,8,0,0,0,7.16,14.31l16-8a8,8,0,1,0-7.16-14.31ZM219.31,184a16,16,0,0,1,0,22.63l-12.68,12.68a16,16,0,0,1-22.63,0L132.7,168,115,214.09c0,.1-.08.21-.13.32a15.83,15.83,0,0,1-14.6,9.59l-.79,0a15.83,15.83,0,0,1-14.41-11L32.8,52.92A16,16,0,0,1,52.92,32.8L213,85.07a16,16,0,0,1,1.41,29.8l-.32.13L168,132.69ZM208,195.31,156.69,144h0a16,16,0,0,1,4.93-26l.32-.14,45.95-17.64L48,48l52.2,159.86,17.65-46c0-.11.08-.22.13-.33a16,16,0,0,1,11.69-9.34,16.72,16.72,0,0,1,3-.28,16,16,0,0,1,11.3,4.69L195.31,208Z"/>
  </symbol>

  <symbol id="clipboard" viewBox="0 0 256 256">
    <path d="M200,32H163.74a47.92,47.92,0,0,0-71.48,0H56A16,16,0,0,0,40,48V216a16,16,0,0,0,16,16H200a16,16,0,0,0,16-16V48A16,16,0,0,0,200,32Zm-72,0a32,32,0,0,1,32,32H96A32,32,0,0,1,128,32Zm72,184H56V48H82.75A47.93,47.93,0,0,0,80,64v8a8,8,0,0,0,8,8h80a8,8,0,0,0,8-8V64a47.93,47.93,0,0,0-2.75-16H200Z"/>
  </symbol>

  <symbol id="magic-wand" viewBox="0 0 256 256">
    <path d="M48,64a8,8,0,0,1,8-8H72V40a8,8,0,0,1,16,0V56h16a8,8,0,0,1,0,16H88V88a8,8,0,0,1-16,0V72H56A8,8,0,0,1,48,64ZM184,192h-8v-8a8,8,0,0,0-16,0v8h-8a8,8,0,0,0,0,16h8v8a8,8,0,0,0,16,0v-8h8a8,8,0,0,0,0-16Zm56-48H224V128a8,8,0,0,0-16,0v16H192a8,8,0,0,0,0,16h16v16a8,8,0,0,0,16,0V160h16a8,8,0,0,0,0-16ZM219.31,80,80,219.31a16,16,0,0,1-22.62,0L36.68,198.63a16,16,0,0,1,0-22.63L176,36.69a16,16,0,0,1,22.63,0l20.68,20.68A16,16,0,0,1,219.31,80Zm-54.63,32L144,91.31l-96,96L68.68,208ZM208,68.69,187.31,48l-32,32L176,100.69Z"/>
  </symbol>

  <symbol id="sparkle" viewBox="0 0 256 256">
    <path d="M197.58,129.06,146,110l-19-51.62a15.92,15.92,0,0,0-29.88,0L78,110l-51.62,19a15.92,15.92,0,0,0,0,29.88L78,178l19,51.62a15.92,15.92,0,0,0,29.88,0L146,178l51.62-19a15.92,15.92,0,0,0,0-29.88ZM137,164.22a8,8,0,0,0-4.74,4.74L112,223.85,91.78,169A8,8,0,0,0,87,164.22L32.15,144,87,123.78A8,8,0,0,0,91.78,119L112,64.15,132.22,119a8,8,0,0,0,4.74,4.74L191.85,144ZM144,40a8,8,0,0,1,8-8h16V16a8,8,0,0,1,16,0V32h16a8,8,0,0,1,0,16H184V64a8,8,0,0,1-16,0V48H152A8,8,0,0,1,144,40ZM248,88a8,8,0,0,1-8,8h-8v8a8,8,0,0,1-16,0V96h-8a8,8,0,0,1,0-16h8V72a8,8,0,0,1,16,0v8h8A8,8,0,0,1,248,88Z"/>
  </symbol>

  <symbol id="envelope" viewBox="0 0 256 256">
    <path d="M224,48H32a8,8,0,0,0-8,8V192a16,16,0,0,0,16,16H216a16,16,0,0,0,16-16V56A8,8,0,0,0,224,48Zm-96,85.15L52.57,64H203.43ZM98.71,128,40,181.81V74.19Zm11.84,10.85,12,11.05a8,8,0,0,0,10.82,0l12-11.05,58,53.15H52.57ZM157.29,128,216,74.18V181.82Z"/>
  </symbol>

  <symbol id="bell" viewBox="0 0 256 256">
    <path d="M221.8,175.94C216.25,166.38,208,139.33,208,104a80,80,0,1,0-160,0c0,35.34-8.26,62.38-13.81,71.94A16,16,0,0,0,48,200H88.81a40,40,0,0,0,78.38,0H208a16,16,0,0,0,13.8-24.06ZM128,216a24,24,0,0,1-22.62-16h45.24A24,24,0,0,1,128,216ZM48,184c7.7-13.24,16-43.92,16-80a64,64,0,1,1,128,0c0,36.05,8.28,66.73,16,80Z"/>
  </symbol>

  <symbol id="bell-ringing" viewBox="0 0 256 256">
    <path d="M224,71.1a8,8,0,0,1-10.78-3.42,94.13,94.13,0,0,0-33.46-36.91,8,8,0,1,1,8.54-13.54,111.46,111.46,0,0,1,39.12,43.09A8,8,0,0,1,224,71.1ZM35.71,72a8,8,0,0,0,7.1-4.32A94.13,94.13,0,0,1,76.27,30.77a8,8,0,1,0-8.54-13.54A111.46,111.46,0,0,0,28.61,60.32,8,8,0,0,0,35.71,72Zm186.1,103.94A16,16,0,0,1,208,200H167.2a40,40,0,0,1-78.4,0H48a16,16,0,0,1-13.79-24.06C43.22,160.39,48,138.28,48,112a80,80,0,0,1,160,0C208,138.27,212.78,160.38,221.81,175.94ZM150.62,200H105.38a24,24,0,0,0,45.24,0ZM208,184c-10.64-18.27-16-42.49-16-72a64,64,0,0,0-128,0c0,29.52-5.38,53.74-16,72Z"/>
  </symbol>

  <symbol id="bell-simple" viewBox="0 0 256 256">
    <path d="M168,224a8,8,0,0,1-8,8H96a8,8,0,1,1,0-16h64A8,8,0,0,1,168,224Zm53.85-32A15.8,15.8,0,0,1,208,200H48a16,16,0,0,1-13.8-24.06C39.75,166.38,48,139.34,48,104a80,80,0,1,1,160,0c0,35.33,8.26,62.38,13.81,71.94A15.89,15.89,0,0,1,221.84,192ZM208,184c-7.73-13.27-16-43.95-16-80a64,64,0,1,0-128,0c0,36.06-8.28,66.74-16,80Z"/>
  </symbol>

  <symbol id="chat-circle" viewBox="0 0 256 256">
    <path d="M128,24A104,104,0,0,0,36.18,176.88L24.83,210.93a16,16,0,0,0,20.24,20.24l34.05-11.35A104,104,0,1,0,128,24Zm0,192a87.87,87.87,0,0,1-44.06-11.81,8,8,0,0,0-6.54-.67L40,216,52.47,178.6a8,8,0,0,0-.66-6.54A88,88,0,1,1,128,216Z"/>
  </symbol>

  <symbol id="phone" viewBox="0 0 256 256">
    <path d="M222.37,158.46l-47.11-21.11-.13-.06a16,16,0,0,0-15.17,1.4,8.12,8.12,0,0,0-.75.56L134.87,160c-15.42-7.49-31.34-23.29-38.83-38.51l20.78-24.71c.2-.25.39-.5.57-.77a16,16,0,0,0,1.32-15.06l0-.12L97.54,33.64a16,16,0,0,0-16.62-9.52A56.26,56.26,0,0,0,32,80c0,79.4,64.6,144,144,144a56.26,56.26,0,0,0,55.88-48.92A16,16,0,0,0,222.37,158.46ZM176,208A128.14,128.14,0,0,1,48,80,40.2,40.2,0,0,1,82.87,40a.61.61,0,0,0,0,.12l21,47L83.2,111.86a6.13,6.13,0,0,0-.57.77,16,16,0,0,0-1,15.7c9.06,18.53,27.73,37.06,46.46,46.11a16,16,0,0,0,15.75-1.14,8.44,8.44,0,0,0,.74-.56L168.89,152l47,21.05h0s.08,0,.11,0A40.21,40.21,0,0,1,176,208Z"/>
  </symbol>

  <symbol id="paper-plane-tilt" viewBox="0 0 256 256">
    <path d="M227.32,28.68a16,16,0,0,0-15.66-4.08l-.15,0L19.57,82.84a16,16,0,0,0-2.49,29.8L102,154l41.3,84.87A15.86,15.86,0,0,0,157.74,248q.69,0,1.38-.06a15.88,15.88,0,0,0,14-11.51l58.2-191.94c0-.05,0-.1,0-.15A16,16,0,0,0,227.32,28.68ZM157.83,231.85l-.05.14,0-.07-40.06-82.3,48-48a8,8,0,0,0-11.31-11.31l-48,48L24.08,98.25l-.07,0,.14,0L216,40Z"/>
  </symbol>

  <symbol id="user" viewBox="0 0 256 256">
    <path d="M230.92,212c-15.23-26.33-38.7-45.21-66.09-54.16a72,72,0,1,0-73.66,0C63.78,166.78,40.31,185.66,25.08,212a8,8,0,1,0,13.85,8c18.84-32.56,52.14-52,89.07-52s70.23,19.44,89.07,52a8,8,0,1,0,13.85-8ZM72,96a56,56,0,1,1,56,56A56.06,56.06,0,0,1,72,96Z"/>
  </symbol>

  <symbol id="users" viewBox="0 0 256 256">
    <path d="M117.25,157.92a60,60,0,1,0-66.5,0A95.83,95.83,0,0,0,3.53,195.63a8,8,0,1,0,13.4,8.74,80,80,0,0,1,134.14,0,8,8,0,0,0,13.4-8.74A95.83,95.83,0,0,0,117.25,157.92ZM40,108a44,44,0,1,1,44,44A44.05,44.05,0,0,1,40,108Zm210.14,98.7a8,8,0,0,1-11.07-2.33A79.83,79.83,0,0,0,172,168a8,8,0,0,1,0-16,44,44,0,1,0-16.34-84.87,8,8,0,1,1-5.94-14.85,60,60,0,0,1,55.53,105.64,95.83,95.83,0,0,1,47.22,37.71A8,8,0,0,1,250.14,206.7Z"/>
  </symbol>

  <symbol id="user-gear" viewBox="0 0 256 256">
    <path d="M144,157.68a68,68,0,1,0-71.9,0c-20.65,6.76-39.23,19.39-54.17,37.17a8,8,0,1,0,12.24,10.3C50.25,181.19,77.91,168,108,168s57.75,13.19,77.87,37.15a8,8,0,0,0,12.26-10.3C183.18,177.07,164.6,164.44,144,157.68ZM56,100a52,52,0,1,1,52,52A52.06,52.06,0,0,1,56,100Zm196.25,43.07-4.66-2.69a23.6,23.6,0,0,0,0-8.76l4.66-2.69a8,8,0,1,0-8-13.86l-4.67,2.7a23.92,23.92,0,0,0-7.58-4.39V108a8,8,0,0,0-16,0v5.38a23.92,23.92,0,0,0-7.58,4.39l-4.67-2.7a8,8,0,1,0-8,13.86l4.66,2.69a23.6,23.6,0,0,0,0,8.76l-4.66,2.69a8,8,0,0,0,8,13.86l4.67-2.7a23.92,23.92,0,0,0,7.58,4.39V164a8,8,0,0,0,16,0v-5.38a23.92,23.92,0,0,0,7.58-4.39l4.67,2.7a7.92,7.92,0,0,0,4,1.07,8,8,0,0,0,4-14.93ZM216,136a8,8,0,1,1,8,8A8,8,0,0,1,216,136Z"/>
  </symbol>

  <symbol id="at" viewBox="0 0 256 256">
    <path d="M128,24a104,104,0,0,0,0,208c21.51,0,44.1-6.48,60.43-17.33a8,8,0,0,0-8.86-13.33C166,210.38,146.21,216,128,216a88,88,0,1,1,88-88c0,26.45-10.88,32-20,32s-20-5.55-20-32V88a8,8,0,0,0-16,0v4.26a48,48,0,1,0,5.93,65.1c6,12,16.35,18.64,30.07,18.64,22.54,0,36-17.94,36-48A104.11,104.11,0,0,0,128,24Zm0,136a32,32,0,1,1,32-32A32,32,0,0,1,128,160Z"/>
  </symbol>

  <symbol id="image" viewBox="0 0 256 256">
    <path d="M216,40H40A16,16,0,0,0,24,56V200a16,16,0,0,0,16,16H216a16,16,0,0,0,16-16V56A16,16,0,0,0,216,40Zm0,16V158.75l-26.07-26.06a16,16,0,0,0-22.63,0l-20,20-44-44a16,16,0,0,0-22.62,0L40,149.37V56ZM40,172l52-52,80,80H40Zm176,28H194.63l-36-36,20-20L216,181.38V200ZM144,100a12,12,0,1,1,12,12A12,12,0,0,1,144,100Z"/>
  </symbol>

  <symbol id="file" viewBox="0 0 256 256">
    <path d="M213.66,82.34l-56-56A8,8,0,0,0,152,24H56A16,16,0,0,0,40,40V216a16,16,0,0,0,16,16H200a16,16,0,0,0,16-16V88A8,8,0,0,0,213.66,82.34ZM160,51.31,188.69,80H160ZM200,216H56V40h88V88a8,8,0,0,0,8,8h48V216Z"/>
  </symbol>

  <symbol id="file-text" viewBox="0 0 256 256">
    <path d="M213.66,82.34l-56-56A8,8,0,0,0,152,24H56A16,16,0,0,0,40,40V216a16,16,0,0,0,16,16H200a16,16,0,0,0,16-16V88A8,8,0,0,0,213.66,82.34ZM160,51.31,188.69,80H160ZM200,216H56V40h88V88a8,8,0,0,0,8,8h48V216Zm-32-80a8,8,0,0,1-8,8H96a8,8,0,0,1,0-16h64A8,8,0,0,1,168,136Zm0,32a8,8,0,0,1-8,8H96a8,8,0,0,1,0-16h64A8,8,0,0,1,168,168Z"/>
  </symbol>

  <symbol id="file-css" viewBox="0 0 256 256">
    <path d="M48,180c0,11,7.18,20,16,20a14.24,14.24,0,0,0,10.22-4.66A8,8,0,1,1,85.77,206.4,30,30,0,0,1,64,216c-17.65,0-32-16.15-32-36s14.35-36,32-36a30,30,0,0,1,21.77,9.6,8,8,0,1,1-11.55,11.06A14.24,14.24,0,0,0,64,160C55.18,160,48,169,48,180Zm79.6-8.69c-4-1.16-8.14-2.35-10.45-3.84-1.26-.81-1.23-1-1.12-1.9a4.54,4.54,0,0,1,2-3.67c4.6-3.12,15.34-1.73,19.83-.56a8,8,0,0,0,4.07-15.48c-2.12-.55-21-5.22-32.83,2.76a20.55,20.55,0,0,0-9,14.95c-2,15.88,13.64,20.41,23,23.11,12.07,3.49,13.13,4.92,12.78,7.59-.31,2.41-1.26,3.34-2.14,3.93-4.6,3.06-15.17,1.56-19.55.36a8,8,0,0,0-4.3,15.41,61.23,61.23,0,0,0,15.18,2c5.83,0,12.3-1,17.49-4.46a20.82,20.82,0,0,0,9.19-15.23C154,179,137.48,174.17,127.6,171.31Zm64,0c-4-1.16-8.14-2.35-10.45-3.84-1.25-.81-1.23-1-1.12-1.9a4.54,4.54,0,0,1,2-3.67c4.6-3.12,15.34-1.73,19.82-.56a8,8,0,0,0,4.07-15.48c-2.11-.55-21-5.22-32.83,2.76a20.58,20.58,0,0,0-8.95,14.95c-2,15.88,13.65,20.41,23,23.11,12.06,3.49,13.12,4.92,12.78,7.59-.31,2.41-1.26,3.34-2.15,3.93-4.6,3.06-15.16,1.56-19.54.36A8,8,0,0,0,173.93,214a61.34,61.34,0,0,0,15.19,2c5.82,0,12.3-1,17.49-4.46a20.81,20.81,0,0,0,9.18-15.23C218,179,201.48,174.17,191.59,171.31ZM40,112V40A16,16,0,0,1,56,24h96a8,8,0,0,1,5.66,2.34l56,56A8,8,0,0,1,216,88v24a8,8,0,1,1-16,0V96H152a8,8,0,0,1-8-8V40H56v72a8,8,0,0,1-16,0ZM160,80h28.68L160,51.31Z"/>
  </symbol>

  <symbol id="file-js" viewBox="0 0 256 256">
    <path d="M213.66,82.34l-56-56A8,8,0,0,0,152,24H56A16,16,0,0,0,40,40v72a8,8,0,0,0,16,0V40h88V88a8,8,0,0,0,8,8h48V216H176a8,8,0,0,0,0,16h24a16,16,0,0,0,16-16V88A8,8,0,0,0,213.66,82.34ZM160,51.31,188.69,80H160Zm-12.19,145a20.82,20.82,0,0,1-9.19,15.23C133.43,215,127,216,121.13,216a61.34,61.34,0,0,1-15.19-2,8,8,0,0,1,4.31-15.41c4.38,1.2,15,2.7,19.55-.36.88-.59,1.83-1.52,2.14-3.93.34-2.67-.71-4.1-12.78-7.59-9.35-2.7-25-7.23-23-23.11a20.56,20.56,0,0,1,9-14.95c11.84-8,30.71-3.31,32.83-2.76a8,8,0,0,1-4.07,15.48c-4.49-1.17-15.23-2.56-19.83.56a4.54,4.54,0,0,0-2,3.67c-.12.9-.14,1.09,1.11,1.9,2.31,1.49,6.45,2.68,10.45,3.84C133.49,174.17,150.05,179,147.81,196.31ZM80,152v38a26,26,0,0,1-52,0,8,8,0,0,1,16,0,10,10,0,0,0,20,0V152a8,8,0,0,1,16,0Z"/>
  </symbol>

  <symbol id="folder" viewBox="0 0 256 256">
    <path d="M216,72H131.31L104,44.69A15.86,15.86,0,0,0,92.69,40H40A16,16,0,0,0,24,56V200.62A15.4,15.4,0,0,0,39.38,216H216.89A15.13,15.13,0,0,0,232,200.89V88A16,16,0,0,0,216,72ZM40,56H92.69l16,16H40ZM216,200H40V88H216Z"/>
  </symbol>

  <symbol id="folder-open" viewBox="0 0 256 256">
    <path d="M245,110.64A16,16,0,0,0,232,104H216V88a16,16,0,0,0-16-16H130.67L102.94,51.2a16.14,16.14,0,0,0-9.6-3.2H40A16,16,0,0,0,24,64V208h0a8,8,0,0,0,8,8H211.1a8,8,0,0,0,7.59-5.47l28.49-85.47A16.05,16.05,0,0,0,245,110.64ZM93.34,64,123.2,86.4A8,8,0,0,0,128,88h72v16H69.77a16,16,0,0,0-15.18,10.94L40,158.7V64Zm112,136H43.1l26.67-80H232Z"/>
  </symbol>

  <symbol id="book-open" viewBox="0 0 256 256">
    <path d="M232,48H160a40,40,0,0,0-32,16A40,40,0,0,0,96,48H24a8,8,0,0,0-8,8V200a8,8,0,0,0,8,8H96a24,24,0,0,1,24,24,8,8,0,0,0,16,0,24,24,0,0,1,24-24h72a8,8,0,0,0,8-8V56A8,8,0,0,0,232,48ZM96,192H32V64H96a24,24,0,0,1,24,24V200A39.81,39.81,0,0,0,96,192Zm128,0H160a39.81,39.81,0,0,0-24,8V88a24,24,0,0,1,24-24h64Z"/>
  </symbol>

  <symbol id="camera" viewBox="0 0 256 256">
    <path d="M208,56H180.28L166.65,35.56A8,8,0,0,0,160,32H96a8,8,0,0,0-6.65,3.56L75.71,56H48A24,24,0,0,0,24,80V192a24,24,0,0,0,24,24H208a24,24,0,0,0,24-24V80A24,24,0,0,0,208,56Zm8,136a8,8,0,0,1-8,8H48a8,8,0,0,1-8-8V80a8,8,0,0,1,8-8H80a8,8,0,0,0,6.66-3.56L100.28,48h55.43l13.63,20.44A8,8,0,0,0,176,72h32a8,8,0,0,1,8,8ZM128,88a44,44,0,1,0,44,44A44.05,44.05,0,0,0,128,88Zm0,72a28,28,0,1,1,28-28A28,28,0,0,1,128,160Z"/>
  </symbol>

  <symbol id="video-camera" viewBox="0 0 256 256">
    <path d="M251.77,73a8,8,0,0,0-8.21.39L208,97.05V72a16,16,0,0,0-16-16H32A16,16,0,0,0,16,72V184a16,16,0,0,0,16,16H192a16,16,0,0,0,16-16V159l35.56,23.71A8,8,0,0,0,248,184a8,8,0,0,0,8-8V80A8,8,0,0,0,251.77,73ZM192,184H32V72H192V184Zm48-22.95-32-21.33V116.28L240,95Z"/>
  </symbol>

  <symbol id="play" viewBox="0 0 256 256">
    <path d="M232.4,114.49,88.32,26.35a16,16,0,0,0-16.2-.3A15.86,15.86,0,0,0,64,39.87V216.13A15.94,15.94,0,0,0,80,232a16.07,16.07,0,0,0,8.36-2.35L232.4,141.51a15.81,15.81,0,0,0,0-27ZM80,215.94V40l143.83,88Z"/>
  </symbol>

  <symbol id="pause" viewBox="0 0 256 256">
    <path d="M200,32H160a16,16,0,0,0-16,16V208a16,16,0,0,0,16,16h40a16,16,0,0,0,16-16V48A16,16,0,0,0,200,32Zm0,176H160V48h40ZM96,32H56A16,16,0,0,0,40,48V208a16,16,0,0,0,16,16H96a16,16,0,0,0,16-16V48A16,16,0,0,0,96,32Zm0,176H56V48H96Z"/>
  </symbol>

  <symbol id="microphone" viewBox="0 0 256 256">
    <path d="M128,176a48.05,48.05,0,0,0,48-48V64a48,48,0,0,0-96,0v64A48.05,48.05,0,0,0,128,176ZM96,64a32,32,0,0,1,64,0v64a32,32,0,0,1-64,0Zm40,143.6V240a8,8,0,0,1-16,0V207.6A80.11,80.11,0,0,1,48,128a8,8,0,0,1,16,0,64,64,0,0,0,128,0,8,8,0,0,1,16,0A80.11,80.11,0,0,1,136,207.6Z"/>
  </symbol>

  <symbol id="brackets-curly" viewBox="0 0 256 256">
    <path d="M43.18,128a29.78,29.78,0,0,1,8,10.26c4.8,9.9,4.8,22,4.8,33.74,0,24.31,1,36,24,36a8,8,0,0,1,0,16c-17.48,0-29.32-6.14-35.2-18.26-4.8-9.9-4.8-22-4.8-33.74,0-24.31-1-36-24-36a8,8,0,0,1,0-16c23,0,24-11.69,24-36,0-11.72,0-23.84,4.8-33.74C50.68,38.14,62.52,32,80,32a8,8,0,0,1,0,16C57,48,56,59.69,56,84c0,11.72,0,23.84-4.8,33.74A29.78,29.78,0,0,1,43.18,128ZM240,120c-23,0-24-11.69-24-36,0-11.72,0-23.84-4.8-33.74C205.32,38.14,193.48,32,176,32a8,8,0,0,0,0,16c23,0,24,11.69,24,36,0,11.72,0,23.84,4.8,33.74a29.78,29.78,0,0,0,8,10.26,29.78,29.78,0,0,0-8,10.26c-4.8,9.9-4.8,22-4.8,33.74,0,24.31-1,36-24,36a8,8,0,0,0,0,16c17.48,0,29.32-6.14,35.2-18.26,4.8-9.9,4.8-22,4.8-33.74,0-24.31,1-36,24-36a8,8,0,0,0,0-16Z"/>
  </symbol>

  <symbol id="code" viewBox="0 0 256 256">
    <path d="M69.12,94.15,28.5,128l40.62,33.85a8,8,0,1,1-10.24,12.29l-48-40a8,8,0,0,1,0-12.29l48-40a8,8,0,0,1,10.24,12.3Zm176,27.7-48-40a8,8,0,1,0-10.24,12.3L227.5,128l-40.62,33.85a8,8,0,1,0,10.24,12.29l48-40a8,8,0,0,0,0-12.29ZM162.73,32.48a8,8,0,0,0-10.25,4.79l-64,176a8,8,0,0,0,4.79,10.26A8.14,8.14,0,0,0,96,224a8,8,0,0,0,7.52-5.27l64-176A8,8,0,0,0,162.73,32.48Z"/>
  </symbol>

  <symbol id="folder-simple" viewBox="0 0 256 256">
    <path d="M216,72H130.67L102.93,51.2a16.12,16.12,0,0,0-9.6-3.2H40A16,16,0,0,0,24,64V200a16,16,0,0,0,16,16H216.89A15.13,15.13,0,0,0,232,200.89V88A16,16,0,0,0,216,72Zm0,128H40V64H93.33L123.2,86.4A8,8,0,0,0,128,88h88Z"/>
  </symbol>

  <symbol id="grid-four" viewBox="0 0 256 256">
    <path d="M200,40H56A16,16,0,0,0,40,56V200a16,16,0,0,0,16,16H200a16,16,0,0,0,16-16V56A16,16,0,0,0,200,40Zm0,80H136V56h64ZM120,56v64H56V56ZM56,136h64v64H56Zm144,64H136V136h64v64Z"/>
  </symbol>

  <symbol id="briefcase" viewBox="0 0 256 256">
    <path d="M216,56H176V48a24,24,0,0,0-24-24H104A24,24,0,0,0,80,48v8H40A16,16,0,0,0,24,72V200a16,16,0,0,0,16,16H216a16,16,0,0,0,16-16V72A16,16,0,0,0,216,56ZM96,48a8,8,0,0,1,8-8h48a8,8,0,0,1,8,8v8H96ZM216,72v41.61A184,184,0,0,1,128,136a184.07,184.07,0,0,1-88-22.38V72Zm0,128H40V131.64A200.19,200.19,0,0,0,128,152a200.25,200.25,0,0,0,88-20.37V200ZM104,112a8,8,0,0,1,8-8h32a8,8,0,0,1,0,16H112A8,8,0,0,1,104,112Z"/>
  </symbol>

  <symbol id="chart-line" viewBox="0 0 256 256">
    <path d="M232,208a8,8,0,0,1-8,8H32a8,8,0,0,1-8-8V48a8,8,0,0,1,16,0v94.37L90.73,98a8,8,0,0,1,10.07-.38l58.81,44.11L218.73,90a8,8,0,1,1,10.54,12l-64,56a8,8,0,0,1-10.07.38L96.39,114.29,40,163.63V200H224A8,8,0,0,1,232,208Z"/>
  </symbol>

  <symbol id="chart-bar" viewBox="0 0 256 256">
    <path d="M224,200h-8V40a8,8,0,0,0-8-8H152a8,8,0,0,0-8,8V80H96a8,8,0,0,0-8,8v40H48a8,8,0,0,0-8,8v64H32a8,8,0,0,0,0,16H224a8,8,0,0,0,0-16ZM160,48h40V200H160ZM104,96h40V200H104ZM56,144H88v56H56Z"/>
  </symbol>

  <symbol id="database" viewBox="0 0 256 256">
    <path d="M128,24C74.17,24,32,48.6,32,80v96c0,31.4,42.17,56,96,56s96-24.6,96-56V80C224,48.6,181.83,24,128,24Zm80,104c0,9.62-7.88,19.43-21.61,26.92C170.93,163.35,150.19,168,128,168s-42.93-4.65-58.39-13.08C55.88,147.43,48,137.62,48,128V111.36c17.06,15,46.23,24.64,80,24.64s62.94-9.68,80-24.64ZM69.61,53.08C85.07,44.65,105.81,40,128,40s42.93,4.65,58.39,13.08C200.12,60.57,208,70.38,208,80s-7.88,19.43-21.61,26.92C170.93,115.35,150.19,120,128,120s-42.93-4.65-58.39-13.08C55.88,99.43,48,89.62,48,80S55.88,60.57,69.61,53.08ZM186.39,202.92C170.93,211.35,150.19,216,128,216s-42.93-4.65-58.39-13.08C55.88,195.43,48,185.62,48,176V159.36c17.06,15,46.23,24.64,80,24.64s62.94-9.68,80-24.64V176C208,185.62,200.12,195.43,186.39,202.92Z"/>
  </symbol>

  <symbol id="map-pin" viewBox="0 0 256 256">
    <path d="M128,64a40,40,0,1,0,40,40A40,40,0,0,0,128,64Zm0,64a24,24,0,1,1,24-24A24,24,0,0,1,128,128Zm0-112a88.1,88.1,0,0,0-88,88c0,31.4,14.51,64.68,42,96.25a254.19,254.19,0,0,0,41.45,38.3,8,8,0,0,0,9.18,0A254.19,254.19,0,0,0,174,200.25c27.45-31.57,42-64.85,42-96.25A88.1,88.1,0,0,0,128,16Zm0,206c-16.53-13-72-60.75-72-118a72,72,0,0,1,144,0C200,161.23,144.53,209,128,222Z"/>
  </symbol>

  <symbol id="info" viewBox="0 0 256 256">
    <path d="M128,24A104,104,0,1,0,232,128,104.11,104.11,0,0,0,128,24Zm0,192a88,88,0,1,1,88-88A88.1,88.1,0,0,1,128,216Zm16-40a8,8,0,0,1-8,8,16,16,0,0,1-16-16V128a8,8,0,0,1,0-16,16,16,0,0,1,16,16v40A8,8,0,0,1,144,176ZM112,84a12,12,0,1,1,12,12A12,12,0,0,1,112,84Z"/>
  </symbol>

  <symbol id="warning" viewBox="0 0 256 256">
    <path d="M236.8,188.09,149.35,36.22h0a24.76,24.76,0,0,0-42.7,0L19.2,188.09a23.51,23.51,0,0,0,0,23.72A24.35,24.35,0,0,0,40.55,224h174.9a24.35,24.35,0,0,0,21.33-12.19A23.51,23.51,0,0,0,236.8,188.09ZM222.93,203.8a8.5,8.5,0,0,1-7.48,4.2H40.55a8.5,8.5,0,0,1-7.48-4.2,7.59,7.59,0,0,1,0-7.72L120.52,44.21a8.75,8.75,0,0,1,15,0l87.45,151.87A7.59,7.59,0,0,1,222.93,203.8ZM120,144V104a8,8,0,0,1,16,0v40a8,8,0,0,1-16,0Zm20,36a12,12,0,1,1-12-12A12,12,0,0,1,140,180Z"/>
  </symbol>

  <symbol id="check-circle" viewBox="0 0 256 256">
    <path d="M173.66,98.34a8,8,0,0,1,0,11.32l-56,56a8,8,0,0,1-11.32,0l-24-24a8,8,0,0,1,11.32-11.32L112,148.69l50.34-50.35A8,8,0,0,1,173.66,98.34ZM232,128A104,104,0,1,1,128,24,104.11,104.11,0,0,1,232,128Zm-16,0a88,88,0,1,0-88,88A88.1,88.1,0,0,0,216,128Z"/>
  </symbol>

  <symbol id="x-circle" viewBox="0 0 256 256">
    <path d="M165.66,101.66,139.31,128l26.35,26.34a8,8,0,0,1-11.32,11.32L128,139.31l-26.34,26.35a8,8,0,0,1-11.32-11.32L116.69,128,90.34,101.66a8,8,0,0,1,11.32-11.32L128,116.69l26.34-26.35a8,8,0,0,1,11.32,11.32ZM232,128A104,104,0,1,1,128,24,104.11,104.11,0,0,1,232,128Zm-16,0a88,88,0,1,0-88,88A88.1,88.1,0,0,0,216,128Z"/>
  </symbol>

  <symbol id="question" viewBox="0 0 256 256">
    <path d="M140,180a12,12,0,1,1-12-12A12,12,0,0,1,140,180ZM128,72c-22.06,0-40,16.15-40,36v4a8,8,0,0,0,16,0v-4c0-11,10.77-20,24-20s24,9,24,20-10.77,20-24,20a8,8,0,0,0-8,8v8a8,8,0,0,0,16,0v-.72c18.24-3.35,32-17.9,32-35.28C168,88.15,150.06,72,128,72Zm104,56A104,104,0,1,1,128,24,104.11,104.11,0,0,1,232,128Zm-16,0a88,88,0,1,0-88,88A88.1,88.1,0,0,0,216,128Z"/>
  </symbol>

  <symbol id="shield" viewBox="0 0 256 256">
    <path d="M208,40H48A16,16,0,0,0,32,56v56c0,52.72,25.52,84.67,46.93,102.19,23.06,18.86,46,25.27,47,25.53a8,8,0,0,0,4.2,0c1-.26,23.91-6.67,47-25.53C198.48,196.67,224,164.72,224,112V56A16,16,0,0,0,208,40Zm0,72c0,37.07-13.66,67.16-40.6,89.42A129.3,129.3,0,0,1,128,223.62a128.25,128.25,0,0,1-38.92-21.81C61.82,179.51,48,149.3,48,112l0-56,160,0Z"/>
  </symbol>

  <symbol id="shield-check" viewBox="0 0 256 256">
    <path d="M208,40H48A16,16,0,0,0,32,56v56c0,52.72,25.52,84.67,46.93,102.19,23.06,18.86,46,25.26,47,25.53a8,8,0,0,0,4.2,0c1-.27,23.91-6.67,47-25.53C198.48,196.67,224,164.72,224,112V56A16,16,0,0,0,208,40Zm0,72c0,37.07-13.66,67.16-40.6,89.42A129.3,129.3,0,0,1,128,223.62a128.25,128.25,0,0,1-38.92-21.81C61.82,179.51,48,149.3,48,112l0-56,160,0ZM82.34,141.66a8,8,0,0,1,11.32-11.32L112,148.69l50.34-50.35a8,8,0,0,1,11.32,11.32l-56,56a8,8,0,0,1-11.32,0Z"/>
  </symbol>

  <symbol id="shield-warning" viewBox="0 0 256 256">
    <path d="M120,136V96a8,8,0,0,1,16,0v40a8,8,0,0,1-16,0Zm8,48a12,12,0,1,0-12-12A12,12,0,0,0,128,184ZM224,56v56c0,52.72-25.52,84.67-46.93,102.19-23.06,18.86-46,25.27-47,25.53a8,8,0,0,1-4.2,0c-1-.26-23.91-6.67-47-25.53C57.52,196.67,32,164.72,32,112V56A16,16,0,0,1,48,40H208A16,16,0,0,1,224,56Zm-16,0L48,56l0,56c0,37.3,13.82,67.51,41.07,89.81A128.25,128.25,0,0,0,128,223.62a129.3,129.3,0,0,0,39.41-22.2C194.34,179.16,208,149.07,208,112Z"/>
  </symbol>

  <symbol id="lock" viewBox="0 0 256 256">
    <path d="M208,80H176V56a48,48,0,0,0-96,0V80H48A16,16,0,0,0,32,96V208a16,16,0,0,0,16,16H208a16,16,0,0,0,16-16V96A16,16,0,0,0,208,80ZM96,56a32,32,0,0,1,64,0V80H96ZM208,208H48V96H208V208Zm-68-56a12,12,0,1,1-12-12A12,12,0,0,1,140,152Z"/>
  </symbol>

  <symbol id="lock-open" viewBox="0 0 256 256">
    <path d="M208,80H96V56a32,32,0,0,1,32-32c15.37,0,29.2,11,32.16,25.59a8,8,0,0,0,15.68-3.18C171.32,24.15,151.2,8,128,8A48.05,48.05,0,0,0,80,56V80H48A16,16,0,0,0,32,96V208a16,16,0,0,0,16,16H208a16,16,0,0,0,16-16V96A16,16,0,0,0,208,80Zm0,128H48V96H208V208Zm-68-56a12,12,0,1,1-12-12A12,12,0,0,1,140,152Z"/>
  </symbol>

  <symbol id="fingerprint" viewBox="0 0 256 256">
    <path d="M72,128a134.63,134.63,0,0,1-14.16,60.47,8,8,0,1,1-14.32-7.12A118.8,118.8,0,0,0,56,128,71.73,71.73,0,0,1,83,71.8,8,8,0,1,1,93,84.29,55.76,55.76,0,0,0,72,128Zm56-8a8,8,0,0,0-8,8,184.12,184.12,0,0,1-23,89.1,8,8,0,0,0,14,7.76A200.19,200.19,0,0,0,136,128,8,8,0,0,0,128,120Zm0-32a40,40,0,0,0-40,40,8,8,0,0,0,16,0,24,24,0,0,1,48,0,214.09,214.09,0,0,1-20.51,92A8,8,0,1,0,146,226.83,230,230,0,0,0,168,128,40,40,0,0,0,128,88Zm0-64A104.11,104.11,0,0,0,24,128a87.76,87.76,0,0,1-5,29.33,8,8,0,0,0,15.09,5.33A103.9,103.9,0,0,0,40,128a88,88,0,0,1,176,0,282.24,282.24,0,0,1-5.29,54.45,8,8,0,0,0,6.3,9.4,8.22,8.22,0,0,0,1.55.15,8,8,0,0,0,7.84-6.45A298.37,298.37,0,0,0,232,128,104.12,104.12,0,0,0,128,24ZM94.4,152.17A8,8,0,0,0,85,158.42a151,151,0,0,1-17.21,45.44,8,8,0,0,0,13.86,8,166.67,166.67,0,0,0,19-50.25A8,8,0,0,0,94.4,152.17ZM128,56a72.85,72.85,0,0,0-9,.56,8,8,0,0,0,2,15.87A56.08,56.08,0,0,1,184,128a252.12,252.12,0,0,1-1.92,31A8,8,0,0,0,189,168a8.39,8.39,0,0,0,1,.06,8,8,0,0,0,7.92-7,266.48,266.48,0,0,0,2-33A72.08,72.08,0,0,0,128,56Zm57.93,128.25a8,8,0,0,0-9.75,5.75c-1.46,5.69-3.15,11.4-5,17a8,8,0,0,0,5,10.13,7.88,7.88,0,0,0,2.55.42,8,8,0,0,0,7.58-5.46c2-5.92,3.79-12,5.35-18.05A8,8,0,0,0,185.94,184.26Z"/>
  </symbol>

  <symbol id="circle-notch" viewBox="0 0 256 256">
    <path d="M232,128a104,104,0,0,1-208,0c0-41,23.81-78.36,60.66-95.27a8,8,0,0,1,6.68,14.54C60.15,61.59,40,93.27,40,128a88,88,0,0,0,176,0c0-34.73-20.15-66.41-51.34-80.73a8,8,0,0,1,6.68-14.54C208.19,49.64,232,87,232,128Z"/>
  </symbol>

  <symbol id="calendar" viewBox="0 0 256 256">
    <path d="M208,32H184V24a8,8,0,0,0-16,0v8H88V24a8,8,0,0,0-16,0v8H48A16,16,0,0,0,32,48V208a16,16,0,0,0,16,16H208a16,16,0,0,0,16-16V48A16,16,0,0,0,208,32ZM72,48v8a8,8,0,0,0,16,0V48h80v8a8,8,0,0,0,16,0V48h24V80H48V48ZM208,208H48V96H208V208Zm-96-88v64a8,8,0,0,1-16,0V132.94l-4.42,2.22a8,8,0,0,1-7.16-14.32l16-8A8,8,0,0,1,112,120Zm59.16,30.45L152,176h16a8,8,0,0,1,0,16H136a8,8,0,0,1-6.4-12.8l28.78-38.37A8,8,0,1,0,145.07,132a8,8,0,1,1-13.85-8A24,24,0,0,1,176,136,23.76,23.76,0,0,1,171.16,150.45Z"/>
  </symbol>

  <symbol id="clock" viewBox="0 0 256 256">
    <path d="M128,24A104,104,0,1,0,232,128,104.11,104.11,0,0,0,128,24Zm0,192a88,88,0,1,1,88-88A88.1,88.1,0,0,1,128,216Zm64-88a8,8,0,0,1-8,8H128a8,8,0,0,1-8-8V72a8,8,0,0,1,16,0v48h48A8,8,0,0,1,192,128Z"/>
  </symbol>

  <symbol id="timer" viewBox="0 0 256 256">
    <path d="M128,40a96,96,0,1,0,96,96A96.11,96.11,0,0,0,128,40Zm0,176a80,80,0,1,1,80-80A80.09,80.09,0,0,1,128,216ZM173.66,90.34a8,8,0,0,1,0,11.32l-40,40a8,8,0,0,1-11.32-11.32l40-40A8,8,0,0,1,173.66,90.34ZM96,16a8,8,0,0,1,8-8h48a8,8,0,0,1,0,16H104A8,8,0,0,1,96,16Z"/>
  </symbol>

  <symbol id="hourglass" viewBox="0 0 256 256">
    <path d="M200,75.64V40a16,16,0,0,0-16-16H72A16,16,0,0,0,56,40V76a16.07,16.07,0,0,0,6.4,12.8L114.67,128,62.4,167.2A16.07,16.07,0,0,0,56,180v36a16,16,0,0,0,16,16H184a16,16,0,0,0,16-16V180.36a16.09,16.09,0,0,0-6.35-12.77L141.27,128l52.38-39.6A16.05,16.05,0,0,0,200,75.64ZM184,216H72V180l56-42,56,42.35Zm0-140.36L128,118,72,76V40H184Z"/>
  </symbol>

  <symbol id="shopping-cart" viewBox="0 0 256 256">
    <path d="M230.14,58.87A8,8,0,0,0,224,56H62.68L56.6,22.57A8,8,0,0,0,48.73,16H24a8,8,0,0,0,0,16h18L67.56,172.29a24,24,0,0,0,5.33,11.27,28,28,0,1,0,44.4,8.44h45.42A27.75,27.75,0,0,0,160,204a28,28,0,1,0,28-28H91.17a8,8,0,0,1-7.87-6.57L80.13,152h116a24,24,0,0,0,23.61-19.71l12.16-66.86A8,8,0,0,0,230.14,58.87ZM104,204a12,12,0,1,1-12-12A12,12,0,0,1,104,204Zm96,0a12,12,0,1,1-12-12A12,12,0,0,1,200,204Zm4-74.57A8,8,0,0,1,196.1,136H77.22L65.59,72H214.41Z"/>
  </symbol>

  <symbol id="credit-card" viewBox="0 0 256 256">
    <path d="M224,48H32A16,16,0,0,0,16,64V192a16,16,0,0,0,16,16H224a16,16,0,0,0,16-16V64A16,16,0,0,0,224,48Zm0,16V88H32V64Zm0,128H32V104H224v88Zm-16-24a8,8,0,0,1-8,8H168a8,8,0,0,1,0-16h32A8,8,0,0,1,208,168Zm-64,0a8,8,0,0,1-8,8H120a8,8,0,0,1,0-16h16A8,8,0,0,1,144,168Z"/>
  </symbol>

  <symbol id="currency-dollar" viewBox="0 0 256 256">
    <path d="M152,120H136V56h8a32,32,0,0,1,32,32,8,8,0,0,0,16,0,48.05,48.05,0,0,0-48-48h-8V24a8,8,0,0,0-16,0V40h-8a48,48,0,0,0,0,96h8v64H104a32,32,0,0,1-32-32,8,8,0,0,0-16,0,48.05,48.05,0,0,0,48,48h16v16a8,8,0,0,0,16,0V216h16a48,48,0,0,0,0-96Zm-40,0a32,32,0,0,1,0-64h8v64Zm40,80H136V136h16a32,32,0,0,1,0,64Z"/>
  </symbol>

  <symbol id="tag" viewBox="0 0 256 256">
    <path d="M243.31,136,144,36.69A15.86,15.86,0,0,0,132.69,32H40a8,8,0,0,0-8,8v92.69A15.86,15.86,0,0,0,36.69,144L136,243.31a16,16,0,0,0,22.63,0l84.68-84.68a16,16,0,0,0,0-22.63Zm-96,96L48,132.69V48h84.69L232,147.31ZM96,84A12,12,0,1,1,84,72,12,12,0,0,1,96,84Z"/>
  </symbol>

  <symbol id="receipt" viewBox="0 0 256 256">
    <path d="M72,104a8,8,0,0,1,8-8h96a8,8,0,0,1,0,16H80A8,8,0,0,1,72,104Zm8,40h96a8,8,0,0,0,0-16H80a8,8,0,0,0,0,16ZM232,56V208a8,8,0,0,1-11.58,7.15L192,200.94l-28.42,14.21a8,8,0,0,1-7.16,0L128,200.94,99.58,215.15a8,8,0,0,1-7.16,0L64,200.94,35.58,215.15A8,8,0,0,1,24,208V56A16,16,0,0,1,40,40H216A16,16,0,0,1,232,56Zm-16,0H40V195.06l20.42-10.22a8,8,0,0,1,7.16,0L96,199.06l28.42-14.22a8,8,0,0,1,7.16,0L160,199.06l28.42-14.22a8,8,0,0,1,7.16,0L216,195.06Z"/>
  </symbol>

  <symbol id="storefront" viewBox="0 0 256 256">
    <path d="M232,96a7.89,7.89,0,0,0-.3-2.2L217.35,43.6A16.07,16.07,0,0,0,202,32H54A16.07,16.07,0,0,0,38.65,43.6L24.31,93.8A7.89,7.89,0,0,0,24,96h0v16a40,40,0,0,0,16,32v72a8,8,0,0,0,8,8H208a8,8,0,0,0,8-8V144a40,40,0,0,0,16-32V96ZM54,48H202l11.42,40H42.61Zm50,56h48v8a24,24,0,0,1-48,0Zm-16,0v8a24,24,0,0,1-35.12,21.26,7.88,7.88,0,0,0-1.82-1.06A24,24,0,0,1,40,112v-8ZM200,208H56V151.2a40.57,40.57,0,0,0,8,.8,40,40,0,0,0,32-16,40,40,0,0,0,64,0,40,40,0,0,0,32,16,40.57,40.57,0,0,0,8-.8Zm4.93-75.8a8.08,8.08,0,0,0-1.8,1.05A24,24,0,0,1,168,112v-8h48v8A24,24,0,0,1,204.93,132.2Z"/>
  </symbol>

  <symbol id="text-align-left" viewBox="0 0 256 256">
    <path d="M32,64a8,8,0,0,1,8-8H216a8,8,0,0,1,0,16H40A8,8,0,0,1,32,64Zm8,48H168a8,8,0,0,0,0-16H40a8,8,0,0,0,0,16Zm176,24H40a8,8,0,0,0,0,16H216a8,8,0,0,0,0-16Zm-48,40H40a8,8,0,0,0,0,16H168a8,8,0,0,0,0-16Z"/>
  </symbol>

  <symbol id="text-align-center" viewBox="0 0 256 256">
    <path d="M32,64a8,8,0,0,1,8-8H216a8,8,0,0,1,0,16H40A8,8,0,0,1,32,64ZM64,96a8,8,0,0,0,0,16H192a8,8,0,0,0,0-16Zm152,40H40a8,8,0,0,0,0,16H216a8,8,0,0,0,0-16Zm-24,40H64a8,8,0,0,0,0,16H192a8,8,0,0,0,0-16Z"/>
  </symbol>

  <symbol id="text-align-right" viewBox="0 0 256 256">
    <path d="M32,64a8,8,0,0,1,8-8H216a8,8,0,0,1,0,16H40A8,8,0,0,1,32,64ZM216,96H88a8,8,0,0,0,0,16H216a8,8,0,0,0,0-16Zm0,40H40a8,8,0,0,0,0,16H216a8,8,0,0,0,0-16Zm0,40H88a8,8,0,0,0,0,16H216a8,8,0,0,0,0-16Z"/>
  </symbol>

  <symbol id="text-b" viewBox="0 0 256 256">
    <path d="M178.48,115.7A44,44,0,0,0,148,40H80a8,8,0,0,0-8,8V200a8,8,0,0,0,8,8h80a48,48,0,0,0,18.48-92.3ZM88,56h60a28,28,0,0,1,0,56H88Zm72,136H88V128h72a32,32,0,0,1,0,64Z"/>
  </symbol>

  <symbol id="text-italic" viewBox="0 0 256 256">
    <path d="M200,56a8,8,0,0,1-8,8H157.77L115.1,192H144a8,8,0,0,1,0,16H64a8,8,0,0,1,0-16H98.23L140.9,64H112a8,8,0,0,1,0-16h80A8,8,0,0,1,200,56Z"/>
  </symbol>

  <symbol id="text-underline" viewBox="0 0 256 256">
    <path d="M200,224a8,8,0,0,1-8,8H64a8,8,0,0,1,0-16H192A8,8,0,0,1,200,224Zm-72-24a64.07,64.07,0,0,0,64-64V56a8,8,0,0,0-16,0v80a48,48,0,0,1-96,0V56a8,8,0,0,0-16,0v80A64.07,64.07,0,0,0,128,200Z"/>
  </symbol>

  <symbol id="list-bullets" viewBox="0 0 256 256">
    <path d="M80,64a8,8,0,0,1,8-8H216a8,8,0,0,1,0,16H88A8,8,0,0,1,80,64Zm136,56H88a8,8,0,0,0,0,16H216a8,8,0,0,0,0-16Zm0,64H88a8,8,0,0,0,0,16H216a8,8,0,0,0,0-16ZM44,52A12,12,0,1,0,56,64,12,12,0,0,0,44,52Zm0,64a12,12,0,1,0,12,12A12,12,0,0,0,44,116Zm0,64a12,12,0,1,0,12,12A12,12,0,0,0,44,180Z"/>
  </symbol>

  <symbol id="list-numbers" viewBox="0 0 256 256">
    <path d="M224,128a8,8,0,0,1-8,8H104a8,8,0,0,1,0-16H216A8,8,0,0,1,224,128ZM104,72H216a8,8,0,0,0,0-16H104a8,8,0,0,0,0,16ZM216,184H104a8,8,0,0,0,0,16H216a8,8,0,0,0,0-16ZM43.58,55.16,48,52.94V104a8,8,0,0,0,16,0V40a8,8,0,0,0-11.58-7.16l-16,8a8,8,0,0,0,7.16,14.32ZM79.77,156.72a23.73,23.73,0,0,0-9.6-15.95,24.86,24.86,0,0,0-34.11,4.7,23.63,23.63,0,0,0-3.57,6.46,8,8,0,1,0,15,5.47,7.84,7.84,0,0,1,1.18-2.13,8.76,8.76,0,0,1,12-1.59A7.91,7.91,0,0,1,63.93,159a7.64,7.64,0,0,1-1.57,5.78,1,1,0,0,0-.08.11L33.59,203.21A8,8,0,0,0,40,216H72a8,8,0,0,0,0-16H56l19.08-25.53A23.47,23.47,0,0,0,79.77,156.72Z"/>
  </symbol>

  <symbol id="text-aa" viewBox="0 0 256 256">
    <path d="M87.24,52.59a8,8,0,0,0-14.48,0l-64,136a8,8,0,1,0,14.48,6.81L39.9,160h80.2l16.66,35.4a8,8,0,1,0,14.48-6.81ZM47.43,144,80,74.79,112.57,144ZM200,96c-12.76,0-22.73,3.47-29.63,10.32a8,8,0,0,0,11.26,11.36c3.8-3.77,10-5.68,18.37-5.68,13.23,0,24,9,24,20v3.22A42.76,42.76,0,0,0,200,128c-22.06,0-40,16.15-40,36s17.94,36,40,36a42.73,42.73,0,0,0,24-7.25,8,8,0,0,0,16-.75V132C240,112.15,222.06,96,200,96Zm0,88c-13.23,0-24-9-24-20s10.77-20,24-20,24,9,24,20S213.23,184,200,184Z"/>
  </symbol>

  <symbol id="cloud" viewBox="0 0 256 256">
    <path d="M160,40A88.09,88.09,0,0,0,81.29,88.67,64,64,0,1,0,72,216h88a88,88,0,0,0,0-176Zm0,160H72a48,48,0,0,1,0-96c1.1,0,2.2,0,3.29.11A88,88,0,0,0,72,128a8,8,0,0,0,16,0,72,72,0,1,1,72,72Z"/>
  </symbol>

  <symbol id="cloud-arrow-up" viewBox="0 0 256 256">
    <path d="M178.34,165.66,160,147.31V208a8,8,0,0,1-16,0V147.31l-18.34,18.35a8,8,0,0,1-11.32-11.32l32-32a8,8,0,0,1,11.32,0l32,32a8,8,0,0,1-11.32,11.32ZM160,40A88.08,88.08,0,0,0,81.29,88.68,64,64,0,1,0,72,216h40a8,8,0,0,0,0-16H72a48,48,0,0,1,0-96c1.1,0,2.2,0,3.29.12A88,88,0,0,0,72,128a8,8,0,0,0,16,0,72,72,0,1,1,100.8,66,8,8,0,0,0,3.2,15.34,7.9,7.9,0,0,0,3.2-.68A88,88,0,0,0,160,40Z"/>
  </symbol>

  <symbol id="cloud-arrow-down" viewBox="0 0 256 256">
    <path d="M248,128a87.34,87.34,0,0,1-17.6,52.81,8,8,0,1,1-12.8-9.62A71.34,71.34,0,0,0,232,128a72,72,0,0,0-144,0,8,8,0,0,1-16,0,88,88,0,0,1,3.29-23.88C74.2,104,73.1,104,72,104a48,48,0,0,0,0,96H96a8,8,0,0,1,0,16H72A64,64,0,1,1,81.29,88.68,88,88,0,0,1,248,128Zm-69.66,42.34L160,188.69V128a8,8,0,0,0-16,0v60.69l-18.34-18.35a8,8,0,0,0-11.32,11.32l32,32a8,8,0,0,0,11.32,0l32-32a8,8,0,0,0-11.32-11.32Z"/>
  </symbol>

  <symbol id="desktop" viewBox="0 0 256 256">
    <path d="M208,40H48A24,24,0,0,0,24,64V176a24,24,0,0,0,24,24h72v16H96a8,8,0,0,0,0,16h64a8,8,0,0,0,0-16H136V200h72a24,24,0,0,0,24-24V64A24,24,0,0,0,208,40ZM48,56H208a8,8,0,0,1,8,8v80H40V64A8,8,0,0,1,48,56ZM208,184H48a8,8,0,0,1-8-8V160H216v16A8,8,0,0,1,208,184Z"/>
  </symbol>

  <symbol id="device-mobile" viewBox="0 0 256 256">
    <path d="M176,16H80A24,24,0,0,0,56,40V216a24,24,0,0,0,24,24h96a24,24,0,0,0,24-24V40A24,24,0,0,0,176,16ZM72,64H184V192H72Zm8-32h96a8,8,0,0,1,8,8v8H72V40A8,8,0,0,1,80,32Zm96,192H80a8,8,0,0,1-8-8v-8H184v8A8,8,0,0,1,176,224Z"/>
  </symbol>

  <symbol id="globe" viewBox="0 0 256 256">
    <path d="M128,24h0A104,104,0,1,0,232,128,104.12,104.12,0,0,0,128,24Zm88,104a87.61,87.61,0,0,1-3.33,24H174.16a157.44,157.44,0,0,0,0-48h38.51A87.61,87.61,0,0,1,216,128ZM102,168H154a115.11,115.11,0,0,1-26,45A115.27,115.27,0,0,1,102,168Zm-3.9-16a140.84,140.84,0,0,1,0-48h59.88a140.84,140.84,0,0,1,0,48ZM40,128a87.61,87.61,0,0,1,3.33-24H81.84a157.44,157.44,0,0,0,0,48H43.33A87.61,87.61,0,0,1,40,128ZM154,88H102a115.11,115.11,0,0,1,26-45A115.27,115.27,0,0,1,154,88Zm52.33,0H170.71a135.28,135.28,0,0,0-22.3-45.6A88.29,88.29,0,0,1,206.37,88ZM107.59,42.4A135.28,135.28,0,0,0,85.29,88H49.63A88.29,88.29,0,0,1,107.59,42.4ZM49.63,168H85.29a135.28,135.28,0,0,0,22.3,45.6A88.29,88.29,0,0,1,49.63,168Zm98.78,45.6a135.28,135.28,0,0,0,22.3-45.6h35.66A88.29,88.29,0,0,1,148.41,213.6Z"/>
  </symbol>

  <symbol id="wifi-high" viewBox="0 0 256 256">
    <path d="M140,204a12,12,0,1,1-12-12A12,12,0,0,1,140,204ZM237.08,87A172,172,0,0,0,18.92,87,8,8,0,0,0,29.08,99.37a156,156,0,0,1,197.84,0A8,8,0,0,0,237.08,87ZM205,122.77a124,124,0,0,0-153.94,0A8,8,0,0,0,61,135.31a108,108,0,0,1,134.06,0,8,8,0,0,0,11.24-1.3A8,8,0,0,0,205,122.77Zm-32.26,35.76a76.05,76.05,0,0,0-89.42,0,8,8,0,0,0,9.42,12.94,60,60,0,0,1,70.58,0,8,8,0,1,0,9.42-12.94Z"/>
  </symbol>

  <symbol id="battery-charging" viewBox="0 0 256 256">
    <path d="M200,56H32A24,24,0,0,0,8,80v96a24,24,0,0,0,24,24H200a24,24,0,0,0,24-24V80A24,24,0,0,0,200,56Zm8,120a8,8,0,0,1-8,8H32a8,8,0,0,1-8-8V80a8,8,0,0,1,8-8H200a8,8,0,0,1,8,8Zm48-80v64a8,8,0,0,1-16,0V96a8,8,0,0,1,16,0ZM138.81,123.79a8,8,0,0,1,.35,7.79l-16,32a8,8,0,0,1-14.32-7.16L119.06,136H100a8,8,0,0,1-7.16-11.58l16-32a8,8,0,1,1,14.32,7.16L112.94,120H132A8,8,0,0,1,138.81,123.79Z"/>
  </symbol>

  <symbol id="sun" viewBox="0 0 256 256">
    <path d="M120,40V16a8,8,0,0,1,16,0V40a8,8,0,0,1-16,0Zm72,88a64,64,0,1,1-64-64A64.07,64.07,0,0,1,192,128Zm-16,0a48,48,0,1,0-48,48A48.05,48.05,0,0,0,176,128ZM58.34,69.66A8,8,0,0,0,69.66,58.34l-16-16A8,8,0,0,0,42.34,53.66Zm0,116.68-16,16a8,8,0,0,0,11.32,11.32l16-16a8,8,0,0,0-11.32-11.32ZM192,72a8,8,0,0,0,5.66-2.34l16-16a8,8,0,0,0-11.32-11.32l-16,16A8,8,0,0,0,192,72Zm5.66,114.34a8,8,0,0,0-11.32,11.32l16,16a8,8,0,0,0,11.32-11.32ZM48,128a8,8,0,0,0-8-8H16a8,8,0,0,0,0,16H40A8,8,0,0,0,48,128Zm80,80a8,8,0,0,0-8,8v24a8,8,0,0,0,16,0V216A8,8,0,0,0,128,208Zm112-88H216a8,8,0,0,0,0,16h24a8,8,0,0,0,0-16Z"/>
  </symbol>

  <symbol id="moon" viewBox="0 0 256 256">
    <path d="M233.54,142.23a8,8,0,0,0-8-2,88.08,88.08,0,0,1-109.8-109.8,8,8,0,0,0-10-10,104.84,104.84,0,0,0-52.91,37A104,104,0,0,0,136,224a103.09,103.09,0,0,0,62.52-20.88,104.84,104.84,0,0,0,37-52.91A8,8,0,0,0,233.54,142.23ZM188.9,190.34A88,88,0,0,1,65.66,67.11a89,89,0,0,1,31.4-26A106,106,0,0,0,96,56,104.11,104.11,0,0,0,200,160a106,106,0,0,0,14.92-1.06A89,89,0,0,1,188.9,190.34Z"/>
  </symbol>

  <symbol id="moon-stars" viewBox="0 0 256 256">
    <path d="M240,96a8,8,0,0,1-8,8H216v16a8,8,0,0,1-16,0V104H184a8,8,0,0,1,0-16h16V72a8,8,0,0,1,16,0V88h16A8,8,0,0,1,240,96ZM144,56h8v8a8,8,0,0,0,16,0V56h8a8,8,0,0,0,0-16h-8V32a8,8,0,0,0-16,0v8h-8a8,8,0,0,0,0,16Zm72.77,97a8,8,0,0,1,1.43,8A96,96,0,1,1,95.07,37.8a8,8,0,0,1,10.6,9.06A88.07,88.07,0,0,0,209.14,150.33,8,8,0,0,1,216.77,153Zm-19.39,14.88c-1.79.09-3.59.14-5.38.14A104.11,104.11,0,0,1,88,64c0-1.79,0-3.59.14-5.38A80,80,0,1,0,197.38,167.86Z"/>
  </symbol>

  <symbol id="palette" viewBox="0 0 256 256">
    <path d="M200.77,53.89A103.27,103.27,0,0,0,128,24h-1.07A104,104,0,0,0,24,128c0,43,26.58,79.06,69.36,94.17A32,32,0,0,0,136,192a16,16,0,0,1,16-16h46.21a31.81,31.81,0,0,0,31.2-24.88,104.43,104.43,0,0,0,2.59-24A103.28,103.28,0,0,0,200.77,53.89Zm13,93.71A15.89,15.89,0,0,1,198.21,160H152a32,32,0,0,0-32,32,16,16,0,0,1-21.31,15.07C62.49,194.3,40,164,40,128a88,88,0,0,1,87.09-88h.9a88.35,88.35,0,0,1,88,87.25A88.86,88.86,0,0,1,213.81,147.6ZM140,76a12,12,0,1,1-12-12A12,12,0,0,1,140,76ZM96,100A12,12,0,1,1,84,88,12,12,0,0,1,96,100Zm0,56a12,12,0,1,1-12-12A12,12,0,0,1,96,156Zm88-56a12,12,0,1,1-12-12A12,12,0,0,1,184,100Z"/>
  </symbol>

  <symbol id="rocket" viewBox="0 0 256 256">
    <path d="M152,224a8,8,0,0,1-8,8H112a8,8,0,0,1,0-16h32A8,8,0,0,1,152,224ZM128,112a12,12,0,1,0-12-12A12,12,0,0,0,128,112Zm95.62,43.83-12.36,55.63a16,16,0,0,1-25.51,9.11L158.51,200h-61L70.25,220.57a16,16,0,0,1-25.51-9.11L32.38,155.83a16.09,16.09,0,0,1,3.32-13.71l28.56-34.26a123.07,123.07,0,0,1,8.57-36.67c12.9-32.34,36-52.63,45.37-59.85a16,16,0,0,1,19.6,0c9.34,7.22,32.47,27.51,45.37,59.85a123.07,123.07,0,0,1,8.57,36.67l28.56,34.26A16.09,16.09,0,0,1,223.62,155.83ZM99.43,184h57.14c21.12-37.54,25.07-73.48,11.74-106.88C156.55,47.64,134.49,29,128,24c-6.51,5-28.57,23.64-40.33,53.12C74.36,110.52,78.31,146.46,99.43,184Zm-15,5.85Q68.28,160.5,64.83,132.16L48,152.36,60.36,208l.18-.13ZM208,152.36l-16.83-20.2q-3.42,28.28-19.56,57.69l23.85,18,.18.13Z"/>
  </symbol>

  <symbol id="feather" viewBox="0 0 256 256">
    <path d="M221.28,34.75a64,64,0,0,0-90.49,0L60.69,104A15.9,15.9,0,0,0,56,115.31v73.38L26.34,218.34a8,8,0,0,0,11.32,11.32L67.32,200H140.7A15.92,15.92,0,0,0,152,195.32l0,0,69.23-70A64,64,0,0,0,221.28,34.75ZM142.07,46.06A48,48,0,0,1,211.79,112H155.33l34.35-34.34a8,8,0,0,0-11.32-11.32L120,124.69V67.87ZM72,115.35l32-31.67v57l-32,32ZM140.7,184H83.32l56-56h56.74Z"/>
  </symbol>

  <symbol id="square" viewBox="0 0 256 256">
    <path d="M208,32H48A16,16,0,0,0,32,48V208a16,16,0,0,0,16,16H208a16,16,0,0,0,16-16V48A16,16,0,0,0,208,32Zm0,176H48V48H208V208Z"/>
  </symbol>

  <symbol id="circle" viewBox="0 0 256 256">
    <path d="M128,24A104,104,0,1,0,232,128,104.11,104.11,0,0,0,128,24Zm0,192a88,88,0,1,1,88-88A88.1,88.1,0,0,1,128,216Z"/>
  </symbol>

  <symbol id="squares-four" viewBox="0 0 256 256">
    <path d="M104,40H56A16,16,0,0,0,40,56v48a16,16,0,0,0,16,16h48a16,16,0,0,0,16-16V56A16,16,0,0,0,104,40Zm0,64H56V56h48v48Zm96-64H152a16,16,0,0,0-16,16v48a16,16,0,0,0,16,16h48a16,16,0,0,0,16-16V56A16,16,0,0,0,200,40Zm0,64H152V56h48v48Zm-96,32H56a16,16,0,0,0-16,16v48a16,16,0,0,0,16,16h48a16,16,0,0,0,16-16V152A16,16,0,0,0,104,136Zm0,64H56V152h48v48Zm96-64H152a16,16,0,0,0-16,16v48a16,16,0,0,0,16,16h48a16,16,0,0,0,16-16V152A16,16,0,0,0,200,136Zm0,64H152V152h48v48Z"/>
  </symbol>

  <symbol id="lightning" viewBox="0 0 256 256">
    <path d="M215.79,118.17a8,8,0,0,0-5-5.66L153.18,90.9l14.66-73.33a8,8,0,0,0-13.69-7l-112,120a8,8,0,0,0,3,13l57.63,21.61L88.16,238.43a8,8,0,0,0,13.69,7l112-120A8,8,0,0,0,215.79,118.17ZM109.37,214l10.47-52.38a8,8,0,0,0-5-9.06L62,132.71l84.62-90.66L136.16,94.43a8,8,0,0,0,5,9.06l52.8,19.8Z"/>
  </symbol>

  <symbol id="wrench" viewBox="0 0 256 256">
    <path d="M226.76,69a8,8,0,0,0-12.84-2.88l-40.3,37.19-17.23-3.7-3.7-17.23,37.19-40.3A8,8,0,0,0,187,29.24,72,72,0,0,0,88,96,72.34,72.34,0,0,0,94,124.94L33.79,177c-.15.12-.29.26-.43.39a32,32,0,0,0,45.26,45.26c.13-.13.27-.28.39-.42L131.06,162A72,72,0,0,0,232,96,71.56,71.56,0,0,0,226.76,69ZM160,152a56.14,56.14,0,0,1-27.07-7,8,8,0,0,0-9.92,1.77L67.11,211.51a16,16,0,0,1-22.62-22.62L109.18,133a8,8,0,0,0,1.77-9.93,56,56,0,0,1,58.36-82.31l-31.2,33.81a8,8,0,0,0-1.94,7.1L141.83,108a8,8,0,0,0,6.14,6.14l26.35,5.66a8,8,0,0,0,7.1-1.94l33.81-31.2A56.06,56.06,0,0,1,160,152Z"/>
  </symbol>
</svg>
